Coordinates
version=1
nRows=32
nColumns=22
inDegrees=yes

Units are S.I. units (second, meters, Newtons, ...)
If the header above contains a line with 'inDegrees', this indicates whether rotational values are in degrees (yes) or radians (no).

endheader
time	pelvis_tilt	pelvis_list	pelvis_rotation	pelvis_tx	pelvis_ty	pelvis_tz	hip_flexion_r	hip_adduction_r	hip_rotation_r	knee_angle_r	ankle_angle_r	subtalar_angle_r	hip_flexion_l	hip_adduction_l	hip_rotation_l	knee_angle_l	ankle_angle_l	subtalar_angle_l	lumbar_extension	lumbar_bending	lumbar_rotation
      0.01000000	    -11.79407569	      3.54919218	    -36.02122124	     -0.97821947	      0.88057246	     -0.36597777	     10.05013164	      3.47514755	      6.72445469	     -2.67860120	      9.56377277	     -2.27970072	      8.35952867	     -5.44632728	     -5.30442382	     -7.47434312	     15.13620516	      1.21003122	      6.65147497	      1.83427336	     12.14213717
      0.02000000	    -11.77562456	      3.54107250	    -36.02849606	     -0.97829997	      0.88059554	     -0.36596516	     10.05084400	      3.47746368	      6.74029934	     -2.71402274	      9.57019659	     -2.28782802	      8.33537589	     -5.44602356	     -5.29357265	     -7.46157050	     15.11649836	      1.21650663	      6.66711411	      1.86482284	     12.10818921
      0.03000000	    -11.74867933	      3.53173476	    -36.02728344	     -0.97837615	      0.88062416	     -0.36596705	     10.03897216	      3.47308659	      6.74542276	     -2.74007235	      9.58755361	     -2.29704590	      8.31157995	     -5.44042780	     -5.28208954	     -7.46224744	     15.11192075	      1.22145443	      6.68312433	      1.89789961	     12.05855678
      0.04000000	    -11.71464232	      3.51714121	    -36.01832168	     -0.97845766	      0.88066400	     -0.36598192	     10.01971631	      3.46781969	      6.74489873	     -2.76914551	      9.61001893	     -2.30868851	      8.28301679	     -5.43415228	     -5.26256971	     -7.46839844	     15.11349281	      1.22537642	      6.69462485	      1.93574723	     11.99241035
      0.05000000	    -11.66805054	      3.48664482	    -35.99349586	     -0.97851323	      0.88072508	     -0.36602940	      9.97659701	      3.46460387	      6.70051790	     -2.79345532	      9.64999516	     -2.33675449	      8.23762931	     -5.43025828	     -5.20799816	     -7.47561629	     15.11855677	      1.22913116	      6.68911805	      1.98418736	     11.91604710
      0.06000000	    -11.63381129	      3.47840397	    -35.99102705	     -0.97862107	      0.88076314	     -0.36604953	      9.96419951	      3.45478493	      6.71755578	     -2.82382434	      9.65094547	     -2.34329165	      8.21365141	     -5.41956041	     -5.19912516	     -7.48108973	     15.12007748	      1.22840440	      6.71215728	      2.02274741	     11.85752122
      0.07000000	    -11.58544895	      3.44734232	    -35.96332699	     -0.97869320	      0.88083083	     -0.36611043	      9.92273184	      3.45071476	      6.68658199	     -2.85301985	      9.69056451	     -2.37099134	      8.16721303	     -5.41473822	     -5.14157109	     -7.48629128	     15.12195470	      1.22197124	      6.70677823	      2.07187519	     11.77709798
      0.08000000	    -11.54966977	      3.43768416	    -35.95475513	     -0.97880676	      0.88087480	     -0.36615424	      9.91139564	      3.43939607	      6.70418667	     -2.88686629	      9.69045433	     -2.37861520	      8.14270237	     -5.40301083	     -5.12910663	     -7.49075260	     15.12226899	      1.21912375	      6.72690526	      2.10866336	     11.72215582
      0.09000000	    -11.51033590	      3.42180916	    -35.93784156	     -0.97891516	      0.88092617	     -0.36621778	      9.89356691	      3.42981410	      6.71241156	     -2.92357869	      9.70717916	     -2.39058387	      8.11471898	     -5.39279895	     -5.09866677	     -7.49672540	     15.12026803	      1.21473690	      6.73660847	      2.14739412	     11.66220061
      0.10000000	    -11.46046871	      3.39358157	    -35.89839555	     -0.97898013	      0.88099938	     -0.36632114	      9.85466992	      3.41900377	      6.66515123	     -2.95479505	      9.74903243	     -2.42532070	      8.06716084	     -5.38043932	     -5.02692482	     -7.49079595	     15.11286768	      1.19944795	      6.72659106	      2.18638974	     11.59993830
      0.11000000	    -11.42671223	      3.38391527	    -35.88253186	     -0.97909986	      0.88104653	     -0.36639190	      9.84517481	      3.40696648	      6.68319856	     -2.98725299	      9.74748705	     -2.43431907	      8.04827173	     -5.36871878	     -5.01015111	     -7.49687440	     15.10905487	      1.19465879	      6.74101889	      2.21537436	     11.56005080
      0.12000000	    -11.38876875	      3.36900990	    -35.85486387	     -0.97921362	      0.88110188	     -0.36648816	      9.83028447	      3.39489566	      6.68793364	     -3.02394173	      9.76383600	     -2.45025429	      8.02632553	     -5.35627178	     -4.96995063	     -7.50446251	     15.10077022	      1.18741747	      6.74345782	      2.24253927	     11.51625815
      0.13000000	    -11.34928189	      3.35236383	    -35.81658237	     -0.97931306	      0.88115990	     -0.36661213	      9.81219728	      3.37976642	      6.66977002	     -3.05852034	      9.78773670	     -2.47453400	      8.00323949	     -5.34161812	     -4.91562408	     -7.50980759	     15.09020551	      1.17603587	      6.74023456	      2.26679796	     11.47583213
      0.14000000	    -11.32773123	      3.34640089	    -35.79804311	     -0.97941784	      0.88118983	     -0.36668771	      9.80438591	      3.36992631	      6.67405055	     -3.07033804	      9.78700840	     -2.47612216	      7.99734979	     -5.33333751	     -4.91367026	     -7.51500951	     15.08899348	      1.17543298	      6.76471542	      2.29068974	     11.47867239
      0.15000000	    -11.28426040	      3.32350634	    -35.73012552	     -0.97950168	      0.88125420	     -0.36686875	      9.78219659	      3.35286722	      6.61024154	     -3.11214583	      9.83220745	     -2.52566397	      7.97701308	     -5.31536229	     -4.81223063	     -7.52571331	     15.07592918	      1.14981894	      6.74583533	      2.30893788	     11.41462416
      0.16000000	    -11.26033123	      3.31205580	    -35.70110815	     -0.97963951	      0.88129317	     -0.36699454	      9.77717824	      3.34320974	      6.62183499	     -3.13489625	      9.82804036	     -2.53254388	      7.97863256	     -5.30889565	     -4.79285181	     -7.54257669	     15.07064268	      1.14548151	      6.75030400	      2.32908425	     11.41545962
      0.17000000	    -11.23374468	      3.29195819	    -35.64559765	     -0.97974488	      0.88133485	     -0.36714905	      9.76741322	      3.33652404	      6.57300639	     -3.16788805	      9.85035128	     -2.57356068	      7.98410772	     -5.30410773	     -4.71543293	     -7.57711837	     15.07490459	      1.11840088	      6.74807042	      2.35025899	     11.37644532
      0.18000000	    -11.21256208	      3.27851342	    -35.61474052	     -0.97989303	      0.88136972	     -0.36728876	      9.76284598	      3.32934138	      6.57758540	     -3.18627125	      9.84905134	     -2.57992118	      7.99309727	     -5.30093304	     -4.68807660	     -7.60356623	     15.06928201	      1.11406155	      6.74753696	      2.36826299	     11.39462130
      0.19000000	    -11.18944715	      3.26092336	    -35.58143759	     -0.98003704	      0.88140751	     -0.36743532	      9.75601305	      3.32388861	      6.56881701	     -3.20939582	      9.85285012	     -2.58936633	      8.00610050	     -5.30018524	     -4.64210893	     -7.64728978	     15.06937256	      1.10742002	      6.74157868	      2.38760269	     11.40962359
      0.20000000	    -11.16846298	      3.23831915	    -35.54283294	     -0.98017485	      0.88144407	     -0.36758416	      9.74785722	      3.32374610	      6.53952680	     -3.23317337	      9.86089240	     -2.60284609	      8.02430208	     -5.30495441	     -4.58272429	     -7.70322790	     15.08021408	      1.09604317	      6.73452648	      2.40885986	     11.41818484
      0.21000000	    -11.16102975	      3.20657126	    -35.47905701	     -0.98028914	      0.88146343	     -0.36778954	      9.74638193	      3.33414405	      6.46551411	     -3.25797607	      9.87204597	     -2.63139518	      8.05943124	     -5.32067477	     -4.50715077	     -7.76608074	     15.12226825	      1.06404853	      6.72933199	      2.45028007	     11.38335969
      0.22000000	    -11.14236103	      3.18935117	    -35.45358965	     -0.98044444	      0.88149704	     -0.36794194	      9.73890644	      3.33080385	      6.46073566	     -3.26818997	      9.87075082	     -2.63596805	      8.07950152	     -5.32248167	     -4.46448889	     -7.81472445	     15.11782647	      1.05792027	      6.72024390	      2.46799876	     11.42811605
      0.23000000	    -11.12911600	      3.15495650	    -35.40512665	     -0.98058315	      0.88152785	     -0.36814047	      9.72861558	      3.34124442	      6.41337525	     -3.28483793	      9.86828820	     -2.65096240	      8.11892294	     -5.34007520	     -4.39921475	     -7.90367553	     15.16559244	      1.02782189	      6.70145933	      2.50584287	     11.42438958
      0.24000000	    -11.10937982	      3.13678964	    -35.38406484	     -0.98074047	      0.88156664	     -0.36830234	      9.71847556	      3.33726029	      6.40698810	     -3.29085945	      9.86722236	     -2.65335818	      8.14249283	     -5.34204186	     -4.35245173	     -7.96222099	     15.16185631	      1.02212806	      6.68528248	      2.52424573	     11.47730577
      0.25000000	    -11.09181514	      3.09850376	    -35.33839039	     -0.98088036	      0.88160913	     -0.36850524	      9.69813660	      3.34799296	      6.36278995	     -3.29913402	      9.85891356	     -2.66115315	      8.18918221	     -5.36052253	     -4.28832856	     -8.07811008	     15.22196404	      0.98982405	      6.65602472	      2.56091971	     11.47779916
      0.26000000	    -11.07039717	      3.07863394	    -35.31961617	     -0.98104110	      0.88165478	     -0.36868014	      9.68522055	      3.34440587	      6.35623214	     -3.30291703	      9.85706205	     -2.66241132	      8.21928850	     -5.36219931	     -4.23359200	     -8.15307322	     15.21834153	      0.98297445	      6.63207622	      2.57897482	     11.53880675
      0.27000000	    -11.05134281	      3.03952972	    -35.27378078	     -0.98118286	      0.88170126	     -0.36889701	      9.65952980	      3.35340936	      6.31480499	     -3.30419982	      9.84484444	     -2.66584422	      8.28086399	     -5.38060704	     -4.17289643	     -8.29806295	     15.29083553	      0.94558637	      6.59612043	      2.61430626	     11.53697802
      0.28000000	    -11.02799987	      3.01783716	    -35.25845419	     -0.98134498	      0.88175527	     -0.36908031	      9.64401652	      3.35026954	      6.30902328	     -3.30786749	      9.84247552	     -2.66614722	      8.31903459	     -5.38235647	     -4.10984866	     -8.39319945	     15.28746080	      0.93734341	      6.56527998	      2.63185318	     11.60455844
      0.29000000	    -11.01064152	      2.97502733	    -35.20938028	     -0.98148913	      0.88180279	     -0.36931721	      9.61674475	      3.36258741	      6.26612299	     -3.30554621	      9.82803445	     -2.66580119	      8.40504074	     -5.40442774	     -4.05028094	     -8.58387002	     15.37983559	      0.89104799	      6.52427953	      2.66953302	     11.59867974
      0.30000000	    -10.99712060	      2.93872086	    -35.17340991	     -0.98164330	      0.88184795	     -0.36954300	      9.60082299	      3.37430126	      6.24044109	     -3.31088380	      9.81488088	     -2.66339456	      8.48953292	     -5.42358446	     -3.98026625	     -8.75944428	     15.43513713	      0.84898131	      6.48943784	      2.70339359	     11.62609031
      0.31000000	    -10.98199749	      2.90398005	    -35.14566600	     -0.98180168	      0.88189489	     -0.36977787	      9.58508292	      3.38404320	      6.21596623	     -3.31314711	      9.80611295	     -2.65923592	      8.58087264	     -5.43971625	     -3.91424161	     -8.95023785	     15.49400887	      0.80824302	      6.44976722	      2.73612674	     11.66081456
      0.32000000	    -10.96767673	      2.86580943	    -35.11786561	     -0.98195134	      0.88193998	     -0.37001745	      9.56845406	      3.39656984	      6.19392470	     -3.31805625	      9.79608526	     -2.65288325	      8.68390331	     -5.45960878	     -3.85054514	     -9.16554077	     15.56427722	      0.76431457	      6.40803639	      2.77183139	     11.69464996
